<?xml version="1.0" encoding="utf-8"?><!-- Uploaded to: SVG Repo, www.svgrepo.com, Generator: SVG Repo Mixer Tools -->
<svg width="800px" height="800px" viewBox="0 -0.5 25 25" fill="none" xmlns="http://www.w3.org/2000/svg">
<path d="M9.417 14.611C9.417 15.0252 9.75279 15.361 10.167 15.361C10.5812 15.361 10.917 15.0252 10.917 14.611H9.417ZM10.917 13.416C10.917 13.0018 10.5812 12.666 10.167 12.666C9.75279 12.666 9.417 13.0018 9.417 13.416H10.917ZM9.52759 9.68677C9.14639 9.84882 8.96873 10.2892 9.13077 10.6704C9.29282 11.0516 9.73321 11.2293 10.1144 11.0672L9.52759 9.68677ZM14.8856 11.0672C15.2668 11.2293 15.7072 11.0516 15.8692 10.6704C16.0313 10.2892 15.8536 9.84882 15.4724 9.68677L14.8856 11.0672ZM10.1144 11.0672C10.4956 10.9051 10.6733 10.4648 10.5112 10.0836C10.3491 9.70237 9.90875 9.52473 9.52756 9.68679L10.1144 11.0672ZM7.55 11.931L7.01292 11.4075L7.01286 11.4076L7.55 11.931ZM6.033 14.257L6.72837 14.538L6.72856 14.5375L6.033 14.257ZM5.5 17L4.75 17.0001C4.75007 17.4143 5.08584 17.75 5.5 17.75V17ZM19.5 17V17.75C19.9142 17.75 20.2499 17.4143 20.25 17.0001L19.5 17ZM18.967 14.257L18.2714 14.5375L18.2716 14.538L18.967 14.257ZM17.45 11.931L17.9871 11.4076L17.9871 11.4075L17.45 11.931ZM15.4724 9.68679C15.0912 9.52473 14.6509 9.70237 14.4888 10.0836C14.3267 10.4648 14.5044 10.9051 14.8856 11.0672L15.4724 9.68679ZM9.2165 10.8209C9.46168 11.1548 9.93108 11.2267 10.2649 10.9815C10.5988 10.7363 10.6707 10.2669 10.4255 9.93307L9.2165 10.8209ZM7.9455 6.55607C7.70032 6.22221 7.23092 6.15032 6.89707 6.3955C6.56321 6.64068 6.49132 7.11008 6.7365 7.44393L7.9455 6.55607ZM14.083 14.611C14.083 15.0252 14.4188 15.361 14.833 15.361C15.2472 15.361 15.583 15.0252 15.583 14.611H14.083ZM15.583 13.416C15.583 13.0018 15.2472 12.666 14.833 12.666C14.4188 12.666 14.083 13.0018 14.083 13.416H15.583ZM14.5736 9.93295C14.3283 10.2668 14.4001 10.7362 14.734 10.9814C15.0678 11.2267 15.5372 11.1549 15.7824 10.8211L14.5736 9.93295ZM18.2634 7.44405C18.5087 7.11024 18.4369 6.64083 18.1031 6.39558C17.7692 6.15034 17.2998 6.22214 17.0546 6.55595L18.2634 7.44405ZM10.917 14.611V13.416H9.417V14.611H10.917ZM10.1144 11.0672C11.6388 10.4192 13.3612 10.4192 14.8856 11.0672L15.4724 9.68677C13.573 8.87938 11.427 8.87938 9.52759 9.68677L10.1144 11.0672ZM9.52756 9.68679C8.58363 10.0881 7.72886 10.673 7.01292 11.4075L8.08708 12.4545C8.66428 11.8623 9.35342 11.3908 10.1144 11.0672L9.52756 9.68679ZM7.01286 11.4076C6.29258 12.1467 5.72347 13.0193 5.33744 13.9765L6.72856 14.5375C7.04159 13.7614 7.50307 13.0538 8.08714 12.4544L7.01286 11.4076ZM5.33763 13.976C4.94933 14.937 4.74982 15.9637 4.75 17.0001L6.25 16.9999C6.24985 16.1561 6.41227 15.3203 6.72837 14.538L5.33763 13.976ZM5.5 17.75H19.5V16.25H5.5V17.75ZM20.25 17.0001C20.2502 15.9637 20.0507 14.937 19.6624 13.976L18.2716 14.538C18.5877 15.3203 18.7501 16.1561 18.75 16.9999L20.25 17.0001ZM19.6626 13.9765C19.2765 13.0193 18.7074 12.1467 17.9871 11.4076L16.9129 12.4544C17.4969 13.0538 17.9584 13.7614 18.2714 14.5375L19.6626 13.9765ZM17.9871 11.4075C17.2711 10.673 16.4164 10.0881 15.4724 9.68679L14.8856 11.0672C15.6466 11.3908 16.3357 11.8623 16.9129 12.4545L17.9871 11.4075ZM10.4255 9.93307L7.9455 6.55607L6.7365 7.44393L9.2165 10.8209L10.4255 9.93307ZM15.583 14.611V13.416H14.083V14.611H15.583ZM15.7824 10.8211L18.2634 7.44405L17.0546 6.55595L14.5736 9.93295L15.7824 10.8211Z" fill="#000000"/>
</svg>